<svg xmlns="http://www.w3.org/2000/svg" width="1200" height="700" viewBox="0 0 1200 700">
  <rect width="1200" height="700" rx="30" fill="#0f172a" />
  <rect x="60" y="60" width="1080" height="580" rx="24" fill="#1e293b" />
  <text x="100" y="120" fill="#f8fafc" font-family="Inter, sans-serif" font-size="42" font-weight="700">Performance Dashboard</text>
  <rect x="100" y="160" width="280" height="160" rx="20" fill="#0f172a" stroke="#3b82f6" stroke-width="3" />
  <rect x="420" y="160" width="300" height="160" rx="20" fill="#0f172a" stroke="#22c55e" stroke-width="3" />
  <rect x="760" y="160" width="280" height="160" rx="20" fill="#0f172a" stroke="#f97316" stroke-width="3" />
  <text x="120" y="210" fill="#e2e8f0" font-family="Inter, sans-serif" font-size="24">CPU Load</text>
  <text x="120" y="255" fill="#f8fafc" font-family="Inter, sans-serif" font-size="52" font-weight="700">28%</text>
  <text x="440" y="210" fill="#e2e8f0" font-family="Inter, sans-serif" font-size="24">RAM</text>
  <text x="440" y="255" fill="#f8fafc" font-family="Inter, sans-serif" font-size="52" font-weight="700">14.2 GB</text>
  <text x="780" y="210" fill="#e2e8f0" font-family="Inter, sans-serif" font-size="24">Disk I/O</text>
  <text x="780" y="255" fill="#f8fafc" font-family="Inter, sans-serif" font-size="52" font-weight="700">287 MB/s</text>
  <rect x="100" y="360" width="940" height="220" rx="20" fill="#0f172a" stroke="#475569" stroke-width="2" />
  <text x="120" y="410" fill="#94a3b8" font-family="Inter, sans-serif" font-size="20">Realtime metrics & status indicators</text>
  <g fill="#3b82f6">
    <rect x="140" y="470" width="160" height="12" rx="6" />
    <rect x="320" y="500" width="120" height="12" rx="6" />
    <rect x="480" y="440" width="240" height="12" rx="6" />
  </g>
  <g fill="#22c55e">
    <rect x="760" y="470" width="180" height="12" rx="6" />
    <rect x="760" y="500" width="100" height="12" rx="6" />
  </g>
</svg>
